<svg xmlns="http://www.w3.org/2000/svg" viewBox="0 0 36.412 33.132"><g fill="#fff" fill-opacity=".85"><path d="M32.82 8.866v11.602l-1.738-1.817V8.954c0-1.397-.762-2.12-2.1-2.12H7.068c-1.367 0-2.11.723-2.11 2.12v15.254c0 1.396.772 2.119 2.11 2.119h18.395l-.006 1.513q-.003.113.012.215H7.029c-2.53 0-3.799-1.26-3.799-3.76V8.866c0-2.5 1.28-3.759 3.8-3.759h21.982c2.529 0 3.808 1.26 3.808 3.76"/><path d="M21.736 21.669c0 .38-.293.664-.683.664H8.973c-.41 0-.694-.284-.694-.664 0-.391.283-.684.693-.684h12.08c.391 0 .684.293.684.684m-3.096-5.098c0 .39-.283.684-.683.684H8.972c-.41 0-.693-.293-.693-.684 0-.38.283-.664.693-.664h8.985c.4 0 .683.283.683.664m5.811-5.078c0 .39-.293.683-.684.683H8.972c-.41 0-.693-.293-.693-.683 0-.381.283-.674.693-.674h14.795c.391 0 .684.293.684.674m8.574 20a.97.97 0 0 0 .537-1.299l-2.002-4.658 2.803-.059c.43-.02.645-.449.342-.771l-6.895-7.217c-.283-.303-.742-.127-.752.303L27.01 27.87c-.01.449.517.595.81.302l1.953-1.962 1.924 4.755c.205.498.81.743 1.328.528"/></g></svg>