<?xml version="1.0" encoding="UTF-8"?>
<!--Generator: Apple Native CoreSVG 362-->
<!DOCTYPE svg
PUBLIC "-//W3C//DTD SVG 1.1//EN"
       "http://www.w3.org/Graphics/SVG/1.1/DTD/svg11.dtd">
<svg version="1.1" xmlns="http://www.w3.org/2000/svg" xmlns:xlink="http://www.w3.org/1999/xlink" viewBox="0 0 23.3203 22.959">
 <g>
  <rect height="22.959" opacity="0" width="23.3203" x="0" y="0"/>
  <path d="M3.79883 22.959L19.1504 22.959C21.6797 22.959 22.959 21.6797 22.959 19.1992L22.959 3.76953C22.959 1.2793 21.6797 0 19.1504 0L3.79883 0C1.2793 0 0 1.26953 0 3.76953L0 19.1992C0 21.6992 1.2793 22.959 3.79883 22.959ZM3.83789 21.2305C2.4707 21.2305 1.72852 20.5078 1.72852 19.1016L1.72852 3.85742C1.72852 2.46094 2.4707 1.72852 3.83789 1.72852L19.1211 1.72852C20.459 1.72852 21.2305 2.46094 21.2305 3.85742L21.2305 19.1016C21.2305 20.5078 20.459 21.2305 19.1211 21.2305Z" fill="white" fill-opacity="0.85"/>
  <path d="M6.66016 18.2227C6.96289 18.2227 7.17773 17.9883 7.17773 17.7051L7.17773 13.9062C7.42188 13.8086 7.93945 13.6426 8.75 13.6426C11.0059 13.6426 12.4023 14.7656 14.6289 14.7656C15.5469 14.7656 15.9668 14.668 16.4453 14.4434C16.9531 14.209 17.1777 13.877 17.1777 13.3691L17.1777 7.13867C17.1777 6.77734 16.9922 6.54297 16.5332 6.54297C16.1816 6.54297 15.6152 6.81641 14.5605 6.81641C12.3926 6.81641 10.9766 5.68359 8.68164 5.68359C7.73438 5.68359 7.31445 5.80078 6.875 5.99609C6.37695 6.21094 6.13281 6.58203 6.13281 7.07031L6.13281 17.7051C6.13281 17.9785 6.36719 18.2227 6.66016 18.2227Z" fill="white" fill-opacity="0.85"/>
 </g>
</svg>
