<svg xmlns="http://www.w3.org/2000/svg" viewBox="0 0 32.433 15.713"><path fill="#fff" fill-opacity=".85" d="M.83 7.217c4.62 5.566 9.073 8.496 15.206 8.496s10.586-2.93 15.205-8.496c1.455-1.768.967-3.74-1.21-3.994C26.28 2.793 25.04.01 21.357.01c-2.978 0-4.668 2.217-5.322 2.217S13.682.01 10.714.01c-3.682 0-4.922 2.783-8.672 3.213C-.136 3.477-.624 5.449.83 7.217m.938-1.094c-.527-.596-.4-1.289.42-1.416l.889-.176C6.778 3.857 8.36 1.67 10.821 1.67c1.25 0 2.158.596 3.008 1.191.85.586 1.465 1.026 2.207 1.026s1.348-.44 2.207-1.026c.85-.595 1.758-1.191 3.008-1.191 2.46 0 4.043 2.187 7.744 2.861l.889.176c.82.127.947.82.42 1.416-3.145 3.33-7.608 7.93-14.268 7.93s-11.123-4.6-14.268-7.93m14.268 2.773c1.738 0 2.12-1.406 4.62-1.386 2.695.01 6.18 1.142 10.097-1.846.635-.478.185-1.055-.342-.781-2.549 1.513-5.43 1.445-7.95 1.21-.644-.077-1.288-.146-1.903-.146-1.885 0-2.881.655-3.594 1.055-.46.254-.664.332-.928.332s-.479-.078-.938-.332c-.712-.4-1.699-1.055-3.584-1.055-.605 0-1.22.078-1.845.137-2.54.244-5.44.312-8.008-1.201-.527-.274-.977.303-.342.781C5.235 8.643 8.722 7.52 11.417 7.51c2.5-.02 2.88 1.386 4.619 1.386"/></svg>