<svg xmlns="http://www.w3.org/2000/svg" viewBox="0 0 24.99 24.639"><path fill="#fff" fill-opacity=".85" d="M12.315 2.393c.664 0 1.2-.528 1.2-1.192 0-.674-.537-1.201-1.2-1.201-.665 0-1.202.527-1.202 1.201 0 .664.537 1.192 1.202 1.192m7.86 3.252c.675 0 1.202-.528 1.202-1.202 0-.664-.527-1.2-1.201-1.2-.664 0-1.192.536-1.192 1.2 0 .674.528 1.202 1.192 1.202m3.253 7.86c.674 0 1.2-.527 1.2-1.19 0-.674-.526-1.202-1.2-1.202-.664 0-1.201.528-1.201 1.202 0 .664.537 1.19 1.2 1.19m-3.252 7.872c.674 0 1.201-.537 1.201-1.201s-.527-1.201-1.201-1.201c-.664 0-1.192.537-1.192 1.2 0 .665.528 1.202 1.192 1.202m-7.861 3.252a1.2 1.2 0 0 0 1.2-1.201c0-.674-.537-1.201-1.2-1.201-.665 0-1.202.527-1.202 1.2a1.2 1.2 0 0 0 1.202 1.202m-7.862-3.252c.664 0 1.192-.537 1.192-1.201s-.528-1.201-1.192-1.201c-.674 0-1.201.537-1.201 1.2 0 .665.527 1.202 1.201 1.202m-3.252-7.871c.664 0 1.201-.527 1.201-1.191 0-.674-.537-1.202-1.2-1.202-.675 0-1.202.528-1.202 1.202 0 .664.527 1.19 1.201 1.19m3.252-7.861c.664 0 1.192-.528 1.192-1.202 0-.664-.528-1.2-1.192-1.2-.674 0-1.201.536-1.201 1.2 0 .674.527 1.202 1.201 1.202m7.862 12.95c3.466 0 6.289-2.813 6.289-6.28a6.297 6.297 0 0 0-6.29-6.289 6.3 6.3 0 0 0-6.289 6.29c0 3.466 2.823 6.279 6.29 6.279"/></svg>